# xmcd CD database file
#
# Track frame offsets:
#	150
#	17778
#	33518
#	52687
#	68796
#	87807
#	106499
#	125162
#	144864
#	166712
#	177623
#	191900
#	211687
#	230707
#	250503
#
# Disc length: 3626 seconds
#
# Revision: 2
# Processed by: cddbd v1.5.2PL0 Copyright (c) Steve Scherf et al.
# Submitted via: CDex 1.70beta2
#
DISCID=c80e280f
DTITLE=Linda Ronstadt with Nelson Riddle and His Orchestra - Round Midnight Disc 1
DYEAR=1986
DGENRE=Easy Listening
TTITLE0=What's New - Linda Ronstadt with Nelson Riddle and His Orchestra
TTITLE1=I've Got a Crush on You - Linda Ronstadt with Nelson Riddle and His Orchestra
TTITLE2=Guess I'll Hang My Tears Out to Dry - Linda Ronstadt with Nelson Riddle and His Orchestra
TTITLE3=Crazy He Calls Me - Linda Ronstadt with Nelson Riddle and His Orchestra
TTITLE4=Someone To Watch Over Me - Linda Ronstadt with Nelson Riddle and His Orchestra
TTITLE5=I Don't Stand a Ghost of a Chance - Linda Ronstadt with Nelson Riddle and His Orchestra
TTITLE6=What'll I Do - Linda Ronstadt with Nelson Riddle and His Orchestra
TTITLE7=Lover Man (Oh Where Can You Be) - Linda Ronstadt with Nelson Riddle and His Orchestra
TTITLE8=Good-Bye - Linda Ronstadt with Nelson Riddle and His Orchestra
TTITLE9=When I Fall in Love - Linda Ronstadt with Nelson Riddle and His Orchestra
TTITLE10=Skylark - Linda Ronstadt with Nelson Riddle and His Orchestra
TTITLE11=It Never Entered My Mind - Linda Ronstadt with Nelson Riddle and His Orchestra
TTITLE12=Mean To Me - Linda Ronstadt with Nelson Riddle and His Orchestra
TTITLE13=When You Lover Has Gone - Linda Ronstadt with Nelson Riddle and His Orchestra
TTITLE14=I'm a Fool to Want You - Linda Ronstadt with Nelson Riddle and His Orchestra
EXTD=YEAR: 1986
EXTT0=
EXTT1=
EXTT2=
EXTT3=
EXTT4=
EXTT5=
EXTT6=
EXTT7=
EXTT8=
EXTT9=
EXTT10=
EXTT11=
EXTT12=
EXTT13=
EXTT14=
PLAYORDER=
